<?xml version="1.0" encoding="utf-8"?>
<!-- Generator: Adobe Illustrator 16.0.0, SVG Export Plug-In . SVG Version: 6.00 Build 0)  -->
<!DOCTYPE svg PUBLIC "-//W3C//DTD SVG 1.1//EN" "http://www.w3.org/Graphics/SVG/1.1/DTD/svg11.dtd">
<svg version="1.1" id="图层_1" xmlns="http://www.w3.org/2000/svg" xmlns:xlink="http://www.w3.org/1999/xlink" x="0px" y="0px"
	 width="134.875px" height="38.5px" viewBox="0 0 134.875 38.5" enable-background="new 0 0 134.875 38.5" xml:space="preserve">
<linearGradient id="SVGID_1_" gradientUnits="userSpaceOnUse" x1="11.9253" y1="37.3032" x2="11.9253" y2="16.5889">
	<stop  offset="0" style="stop-color:#2D5B94"/>
	<stop  offset="0.1644" style="stop-color:#3566A1"/>
	<stop  offset="0.455" style="stop-color:#4074B3"/>
	<stop  offset="0.7361" style="stop-color:#477DBF"/>
	<stop  offset="0.9946" style="stop-color:#4980C2"/>
</linearGradient>
<path fill="url(#SVGID_1_)" d="M14.976,36.255c-4.932,2.763-8.9-0.27-11.663-5.203c-2.765-4.933-3.276-9.898,1.659-12.663
	c4.933-2.762,14.049-2.612,16.813,2.32C24.547,25.641,19.909,33.492,14.976,36.255z"/>
<g opacity="0.95">
	<linearGradient id="SVGID_2_" gradientUnits="userSpaceOnUse" x1="22.6753" y1="34.7417" x2="22.6753" y2="8.7144">
		<stop  offset="0" style="stop-color:#339AD7"/>
		<stop  offset="0.2091" style="stop-color:#34A8E0"/>
		<stop  offset="0.484" style="stop-color:#38B5E8"/>
		<stop  offset="0.75" style="stop-color:#3ABCED"/>
		<stop  offset="0.9946" style="stop-color:#3CBEEE"/>
	</linearGradient>
	<path fill="url(#SVGID_2_)" d="M18.926,34.742c-7.188,0-9.706-5.824-9.706-13.014c0-7.187,2.518-13.014,9.706-13.014
		c7.186,0,17.203,5.827,17.203,13.014C36.129,28.917,26.112,34.742,18.926,34.742z"/>
</g>
<g opacity="0.95">
	<g opacity="0.25">
		<path fill="#296EB0" d="M16.5,28.463c-7.186,0-9.704-5.823-9.704-13.012c0-7.188,2.518-13.012,9.704-13.012
			c7.187,0,17.205,5.825,17.205,13.015C33.705,22.64,23.688,28.463,16.5,28.463z"/>
	</g>
	<g>
		<linearGradient id="SVGID_3_" gradientUnits="userSpaceOnUse" x1="20.2505" y1="1.439" x2="20.2505" y2="27.4634">
			<stop  offset="0" style="stop-color:#906EAE"/>
			<stop  offset="0.071" style="stop-color:#876FB0"/>
			<stop  offset="0.3143" style="stop-color:#686FB3"/>
			<stop  offset="0.553" style="stop-color:#4C6FB6"/>
			<stop  offset="0.783" style="stop-color:#356FB7"/>
			<stop  offset="0.9946" style="stop-color:#2A6FB8"/>
		</linearGradient>
		<path fill="url(#SVGID_3_)" d="M16.5,27.463c-7.186,0-9.704-5.823-9.704-13.012c0-7.188,2.518-13.012,9.704-13.012
			c7.187,0,17.205,5.825,17.205,13.015C33.705,21.64,23.688,27.463,16.5,27.463z"/>
	</g>
</g>
<g>
	<polygon fill="#FFFFFF" points="19.719,10.627 19.72,10.627 19.729,10.629 	"/>
	<path fill="#FFFFFF" d="M23.648,9.5c-0.383,0-0.693,0.309-0.693,0.694c0,0.044,0.017,0.084,0.026,0.128
		c-0.862,0.465-1.958,0.852-2.485,1.024c-0.062-0.1-0.19-0.274-0.416-0.463c0.527-0.352,1.539-1.056,2.274-1.76
		c0.105,0.06,0.219,0.103,0.346,0.103c0.396,0,0.712-0.318,0.712-0.71c0-0.394-0.316-0.713-0.712-0.713
		c-0.39,0-0.708,0.319-0.708,0.713c0,0.134,0.047,0.251,0.111,0.358c-0.763,0.727-1.859,1.479-2.332,1.789
		c-0.018-0.013-0.033-0.024-0.053-0.036c-0.298-0.089-0.562-0.096-0.808-0.058c0.364-0.467,0.831-1.065,1.169-1.497
		c0.061,0.018,0.123,0.039,0.189,0.039c0.371,0,0.673-0.305,0.673-0.671c0-0.376-0.302-0.678-0.673-0.678
		c-0.375,0-0.677,0.302-0.677,0.678c0,0.174,0.073,0.331,0.184,0.45c-0.459,0.59-1.137,1.46-1.483,1.903
		c-0.292,0.163-0.57,0.388-0.861,0.641c-0.665,0.578-1.332,1.15-1.997,1.731c0.832-0.008,1.677-0.114,2.507-0.057
		c0.999,0.069,1.812,0.546,2.141,1.527c0.344,1.023,0.197,2.178-0.005,3.214c-0.259,1.324-0.679,2.623-1.226,3.855
		c-0.796,1.813-1.896,3.45-3.083,5.026c-0.152,0.199-0.432,0.537-0.432,0.537c3.512,0.534,7.136-0.956,7.136-0.956
		c1.208-4.607-0.534-11.098-0.534-11.098c-0.31-1.173-0.692-2.462-1.279-3.55c0.551-0.184,1.607-0.561,2.469-1.025
		c0.126,0.149,0.309,0.248,0.519,0.248c0.384,0,0.693-0.312,0.693-0.693C24.342,9.808,24.032,9.5,23.648,9.5z"/>
</g>
<g>
	<path fill="#FFFFFF" d="M61.938,20.276h-3.802v-8.109h2.607c0.186,0,0.335-0.151,0.335-0.338v-0.617
		c0-0.187-0.149-0.339-0.335-0.339H43.064c-0.183,0-0.333,0.152-0.333,0.339v0.617c0,0.188,0.15,0.338,0.333,0.338h2.883v8.109
		h-3.802c-0.185,0-0.334,0.151-0.334,0.341v0.612c0,0.188,0.149,0.342,0.334,0.342h3.802v1.307c0,0.043-0.017,0.12-0.034,0.157
		l-3.199,6.938c-0.047,0.097-0.042,0.203,0.01,0.286l0.133,0.133h1.063c0.149,0,0.304-0.099,0.369-0.239l3.109-6.743
		c0.043-0.092,0.075-0.231,0.075-0.338v-1.501h9.139v8.58c0,0.187,0.149,0.34,0.334,0.34H57.8c0.186,0,0.335-0.153,0.335-0.34v-8.58
		h3.802c0.185,0,0.334-0.154,0.334-0.342v-0.612C62.271,20.427,62.122,20.276,61.938,20.276z M47.473,20.276v-8.109h9.12
		l0.018,8.109H47.473z"/>
	<path fill="#FFFFFF" d="M74.808,17.464h-2.976v-3.552h2.606c0.185,0,0.336-0.152,0.336-0.341v-0.614
		c0-0.187-0.151-0.338-0.336-0.338h-2.606V9.855c0-0.188-0.149-0.34-0.333-0.34h-0.854c-0.187,0-0.337,0.152-0.337,0.34v7.609
		h-2.429v-6.252c0-0.187-0.149-0.339-0.335-0.339h-0.856c-0.185,0-0.334,0.152-0.334,0.339v6.252h-0.491
		c-0.186,0-0.335,0.154-0.335,0.34v0.617c0,0.187,0.149,0.337,0.335,0.337h8.945c0.184,0,0.335-0.151,0.335-0.337v-0.617
		C75.143,17.618,74.991,17.464,74.808,17.464z"/>
	<path fill="#FFFFFF" d="M73.041,22.952c-0.328,0.307-0.845,0.777-1.209,1.111v-4.32c0-0.186-0.149-0.34-0.333-0.34h-0.854
		c-0.187,0-0.337,0.154-0.337,0.34v5.592l-4.425,3.83c-0.102,0.082-0.171,0.236-0.171,0.37v1.1l0.044,0.279h0.209l0.13-0.023
		l8.691-7.444c0.102-0.085,0.173-0.239,0.173-0.374v-1.761l-0.343,0.271C74.127,21.968,73.596,22.429,73.041,22.952z"/>
	<path fill="#FFFFFF" d="M66.8,25.841l1.41-5.666c0.023-0.096,0.004-0.196-0.056-0.27l-0.14-0.116h-0.958
		c-0.163,0-0.319,0.124-0.359,0.285l-1.408,5.663c-0.025,0.098-0.005,0.195,0.054,0.27l0.14,0.118h0.957
		C66.605,26.125,66.759,26.004,66.8,25.841z"/>
	<path fill="#FFFFFF" d="M81.303,24.47v-7.248c0-0.189-0.151-0.34-0.338-0.34h-0.854c-0.185,0-0.336,0.151-0.336,0.34v7.262
		l-4.437,4.099c-0.093,0.087-0.158,0.238-0.158,0.367v1.2l0.039,0.278h0.212l0.134-0.026l5.019-4.696l4.772,4.635l0.112,0.088h0.086
		l0.251-0.068v-1.41c0-0.127-0.064-0.278-0.158-0.368L81.303,24.47z"/>
	<path fill="#FFFFFF" d="M86.022,10.873H74.778c-0.183,0-0.332,0.152-0.332,0.339v0.617c0,0.188,0.149,0.338,0.332,0.338h4.134
		l-0.387,2.389h-2.828c-0.187,0-0.335,0.153-0.335,0.339V25.4c0,0.186,0.148,0.338,0.335,0.338h0.857
		c0.183,0,0.332-0.152,0.332-0.338v-9.549h7.119v9.355c0,0.186,0.149,0.339,0.333,0.339h0.857c0.185,0,0.334-0.153,0.334-0.339
		V14.895c0-0.187-0.149-0.339-0.334-0.339h-5.143l0.395-2.389h5.574c0.184,0,0.334-0.151,0.334-0.338v-0.617
		C86.356,11.024,86.206,10.873,86.022,10.873z"/>
	<path fill="#FFFFFF" d="M132.354,11.222h-12.622c-0.186,0-0.336,0.153-0.336,0.34v0.615c0,0.187,0.15,0.34,0.336,0.34h3.864
		l-3.661,7.433c-0.047,0.1-0.044,0.204,0.008,0.288l0.133,0.132h1.321l0.058-0.122c0.551-1.16,1.193-2.468,1.929-3.923
		c0.586-1.162,1.525-3.084,1.877-3.808h5.904v4.909h-5.354c-0.153,0-0.307,0.107-0.367,0.251l-0.254,0.631
		c-0.041,0.098-0.033,0.201,0.02,0.282l0.137,0.128h7.009c0.186,0,0.335-0.151,0.335-0.339v-6.817
		C132.688,11.375,132.539,11.222,132.354,11.222z"/>
	<path fill="#FFFFFF" d="M132.354,21.015H120.1c-0.184,0-0.333,0.152-0.333,0.338v8.857c0,0.187,0.149,0.338,0.333,0.338h12.254
		c0.186,0,0.335-0.151,0.335-0.338v-8.857C132.688,21.167,132.539,21.015,132.354,21.015z M121.29,29.253v-6.945h9.874v6.945H121.29
		z"/>
	<path fill="#FFFFFF" d="M119.393,13.745h-3.066v-3.442c0-0.188-0.15-0.34-0.337-0.34h-0.852c-0.186,0-0.335,0.153-0.335,0.34v3.442
		h-2.701c-0.184,0-0.333,0.151-0.333,0.34v0.713c0,0.186,0.149,0.337,0.333,0.337h2.701v5.296l-2.782,1.037
		c-0.146,0.057-0.252,0.213-0.252,0.37v1.134l3.034-1.045v7.326h-1.78c-0.11,0-0.204,0.053-0.253,0.141l-0.048,0.186l0.482,0.765
		c0.079,0.122,0.23,0.204,0.37,0.204h2.415c0.187,0,0.337-0.151,0.337-0.338v-8.871l3.15-1.133c0.145-0.059,0.251-0.213,0.251-0.37
		v-1.246l-0.289,0.111c-0.491,0.195-1.043,0.423-1.66,0.678c-0.369,0.156-1.005,0.398-1.452,0.566v-4.812h3.066
		c0.186,0,0.335-0.152,0.335-0.337v-0.713C119.728,13.896,119.578,13.745,119.393,13.745z"/>
	<path fill="#FFFFFF" d="M109.191,11.998h-5.499l-0.398-2.029c-0.034-0.171-0.186-0.297-0.355-0.297h-1.226l0.037,0.243
		c0.061,0.391,0.139,0.784,0.232,1.181c0.054,0.223,0.125,0.615,0.177,0.902h-5.683c-0.186,0-0.337,0.154-0.337,0.339v0.519
		c0,0.188,0.151,0.34,0.337,0.34h12.715c0.184,0,0.334-0.152,0.334-0.34v-0.519C109.525,12.152,109.375,11.998,109.191,11.998z"/>
	<path fill="#FFFFFF" d="M94.206,16.65h-0.854c-0.003,0-0.006,0.004-0.008,0.004v-1.421h2.24c0.183,0,0.335-0.155,0.335-0.342
		v-0.615c0-0.185-0.152-0.337-0.335-0.337h-2.24v-3.83c0-0.188-0.149-0.34-0.335-0.34h-0.855c-0.185,0-0.334,0.152-0.334,0.34v3.83
		h-2.882c-0.185,0-0.334,0.153-0.334,0.337v0.615c0,0.187,0.149,0.342,0.334,0.342h2.167l-2.55,8.428
		c-0.028,0.098-0.013,0.195,0.045,0.275l0.139,0.118h1.34l0.042-0.155c0.302-1.091,0.657-2.262,1.055-3.481
		c0.191-0.6,0.44-1.414,0.645-2.093v11.979c0,0.188,0.149,0.341,0.334,0.341h0.855c0.186,0,0.335-0.153,0.335-0.341V17.705
		l1.659,4.062c0.058,0.144,0.214,0.252,0.368,0.252h0.857c0.103,0,0.193-0.048,0.248-0.13l0.065-0.176l-1.97-4.814
		C94.512,16.756,94.356,16.65,94.206,16.65z"/>
	<path fill="#FFFFFF" d="M97.043,20.457h0.078c0.104,0,0.202-0.045,0.27-0.123l4.574-5.252c0.061-0.072,0.091-0.167,0.085-0.261
		c-0.007-0.096-0.052-0.185-0.123-0.246l-0.569-0.497l-0.157-0.086h-0.078c-0.104,0-0.205,0.044-0.271,0.124l-4.571,5.25
		c-0.063,0.073-0.094,0.164-0.087,0.261c0.006,0.097,0.05,0.185,0.122,0.247l0.569,0.496L97.043,20.457z"/>
	<path fill="#FFFFFF" d="M104.768,14.119c-0.068-0.083-0.168-0.127-0.272-0.127l-0.179,0.037l-0.624,0.544
		c-0.073,0.063-0.119,0.153-0.126,0.249c-0.006,0.094,0.025,0.188,0.088,0.262l4.568,5.251c0.068,0.078,0.167,0.123,0.272,0.123
		l0.178-0.037l0.628-0.546c0.073-0.063,0.115-0.15,0.121-0.247c0.008-0.097-0.022-0.188-0.088-0.261L104.768,14.119z"/>
	<path fill="#FFFFFF" d="M103.9,24.646l3.609-3.519c0.063-0.077,0.091-0.172,0.077-0.267c-0.011-0.097-0.058-0.181-0.132-0.239
		l-0.592-0.474l-0.151-0.077h-0.073c-0.107,0-0.212,0.049-0.262,0.115l-3.526,3.437l-3.509-3.416
		c-0.066-0.087-0.17-0.136-0.279-0.136l-0.168,0.034l-0.646,0.515c-0.075,0.061-0.122,0.145-0.135,0.241
		c-0.012,0.095,0.017,0.189,0.093,0.284l3.596,3.501l-5.019,4.892c-0.133,0.128-0.152,0.349-0.044,0.5l0.439,0.614
		c0.065,0.091,0.166,0.142,0.274,0.142l0.177-0.036l5.221-5.089l5.16,5.029l0.15,0.096h0.086c0.109,0,0.21-0.051,0.275-0.144
		l0.44-0.61c0.109-0.153,0.088-0.374-0.044-0.502L103.9,24.646z"/>
</g>
</svg>
