<?xml version="1.0" encoding="utf-8"?>
<!-- Generator: Adobe Illustrator 16.0.0, SVG Export Plug-In . SVG Version: 6.00 Build 0)  -->
<!DOCTYPE svg PUBLIC "-//W3C//DTD SVG 1.1//EN" "http://www.w3.org/Graphics/SVG/1.1/DTD/svg11.dtd">
<svg version="1.1" id="图层_1" xmlns="http://www.w3.org/2000/svg" xmlns:xlink="http://www.w3.org/1999/xlink" x="0px" y="0px"
	 width="186.777px" height="41.667px" viewBox="0 0 186.777 41.667" enable-background="new 0 0 186.777 41.667"
	 xml:space="preserve">
<linearGradient id="SVGID_1_" gradientUnits="userSpaceOnUse" x1="12.7896" y1="39.9312" x2="12.7895" y2="17.5532">
	<stop  offset="0" style="stop-color:#2D5F9C"/>
	<stop  offset="0.1741" style="stop-color:#356BAD"/>
	<stop  offset="0.4613" style="stop-color:#407BC3"/>
	<stop  offset="0.7391" style="stop-color:#4784D0"/>
	<stop  offset="0.9946" style="stop-color:#4987D4"/>
</linearGradient>
<path fill="url(#SVGID_1_)" d="M16.085,38.799c-5.328,2.984-9.614-0.291-12.6-5.621C0.5,27.85-0.053,22.485,5.277,19.499
	c5.329-2.984,15.178-2.822,18.162,2.506S21.414,35.813,16.085,38.799z"/>
<g opacity="0.95">
	<linearGradient id="SVGID_2_" gradientUnits="userSpaceOnUse" x1="24.4023" y1="37.1646" x2="24.4023" y2="9.0479">
		<stop  offset="0" style="stop-color:#1CA5F1"/>
		<stop  offset="0.3294" style="stop-color:#23B9F8"/>
		<stop  offset="0.6756" style="stop-color:#28C6FD"/>
		<stop  offset="0.9946" style="stop-color:#2ACAFF"/>
	</linearGradient>
	<path fill="url(#SVGID_2_)" d="M20.353,37.165c-7.764,0-10.484-6.293-10.484-14.059c0-7.764,2.721-14.059,10.484-14.059
		s18.584,6.295,18.584,14.059C38.937,30.872,28.116,37.165,20.353,37.165z"/>
</g>
<g opacity="0.98">
	<g opacity="0.25">
		<path fill="#2474BC" d="M17.731,30.301c-7.763,0-10.483-6.291-10.483-14.057c0-7.764,2.721-14.057,10.483-14.057
			c7.765,0,18.586,6.293,18.586,14.059C36.317,24.01,25.496,30.301,17.731,30.301z"/>
	</g>
	<g>
		<linearGradient id="SVGID_3_" gradientUnits="userSpaceOnUse" x1="21.7827" y1="1.188" x2="21.7827" y2="29.3018">
			<stop  offset="0" style="stop-color:#BD69FE"/>
			<stop  offset="0.0226" style="stop-color:#B66AFD"/>
			<stop  offset="0.1932" style="stop-color:#876EF3"/>
			<stop  offset="0.3635" style="stop-color:#6071EB"/>
			<stop  offset="0.5305" style="stop-color:#4174E5"/>
			<stop  offset="0.6934" style="stop-color:#2B75E1"/>
			<stop  offset="0.8503" style="stop-color:#1E77DE"/>
			<stop  offset="0.9946" style="stop-color:#1A77DD"/>
		</linearGradient>
		<path fill="url(#SVGID_3_)" d="M17.731,29.301c-7.763,0-10.483-6.291-10.483-14.057c0-7.764,2.721-14.057,10.483-14.057
			c7.765,0,18.586,6.293,18.586,14.059C36.317,23.01,25.496,29.301,17.731,29.301z"/>
	</g>
</g>
<g>
	<polygon fill="#FFFFFF" points="21.209,11.114 21.21,11.114 21.22,11.116 	"/>
	<path fill="#FFFFFF" d="M25.454,9.895c-0.414,0-0.749,0.334-0.749,0.75c0,0.049,0.019,0.092,0.028,0.139
		c-0.931,0.502-2.115,0.92-2.685,1.107c-0.067-0.109-0.205-0.297-0.449-0.502c0.569-0.379,1.662-1.141,2.456-1.9
		C24.169,9.553,24.292,9.6,24.431,9.6c0.428,0,0.77-0.344,0.77-0.768c0-0.426-0.342-0.77-0.77-0.77c-0.422,0-0.765,0.344-0.765,0.77
		c0,0.145,0.05,0.271,0.119,0.387c-0.823,0.785-2.008,1.598-2.518,1.934c-0.021-0.014-0.037-0.025-0.058-0.039
		c-0.322-0.096-0.607-0.104-0.873-0.061c0.394-0.506,0.897-1.152,1.263-1.619c0.065,0.02,0.132,0.041,0.204,0.041
		c0.4,0,0.727-0.328,0.727-0.725c0-0.406-0.326-0.732-0.727-0.732c-0.404,0-0.731,0.326-0.731,0.732
		c0,0.188,0.078,0.357,0.198,0.486c-0.496,0.637-1.229,1.578-1.602,2.055c-0.315,0.176-0.615,0.42-0.929,0.693
		c-0.719,0.625-1.44,1.242-2.158,1.869c0.898-0.008,1.812-0.123,2.708-0.061c1.079,0.076,1.957,0.59,2.313,1.65
		c0.371,1.104,0.213,2.352-0.006,3.471c-0.279,1.432-0.733,2.834-1.324,4.166c-0.86,1.959-2.048,3.727-3.33,5.43
		c-0.165,0.215-0.468,0.58-0.468,0.58c3.794,0.576,7.709-1.033,7.709-1.033c1.306-4.977-0.577-11.988-0.577-11.988
		c-0.334-1.268-0.747-2.66-1.381-3.834c0.596-0.199,1.737-0.607,2.667-1.107c0.138,0.16,0.334,0.266,0.562,0.266
		c0.415,0,0.749-0.336,0.749-0.748C26.203,10.229,25.869,9.895,25.454,9.895z"/>
</g>
<g>
	<path fill="#FFFFFF" d="M66.815,20.797h-4.106v-8.761h2.816c0.199,0,0.361-0.164,0.361-0.366v-0.666
		c0-0.202-0.162-0.366-0.361-0.366H46.429c-0.198,0-0.36,0.164-0.36,0.366v0.666c0,0.202,0.162,0.366,0.36,0.366h3.113v8.761h-4.106
		c-0.2,0-0.362,0.164-0.362,0.367v0.662c0,0.202,0.162,0.368,0.362,0.368h4.106v1.413c0,0.046-0.018,0.13-0.036,0.169l-3.456,7.496
		c-0.051,0.104-0.046,0.219,0.011,0.31l0.144,0.143h1.148c0.161,0,0.329-0.107,0.398-0.258l3.358-7.286
		c0.047-0.097,0.081-0.25,0.081-0.364v-1.622h9.872v9.27c0,0.202,0.162,0.367,0.36,0.367h0.924c0.2,0,0.362-0.165,0.362-0.367v-9.27
		h4.106c0.199,0,0.361-0.166,0.361-0.368v-0.662C67.177,20.961,67.015,20.797,66.815,20.797z M51.19,20.797v-8.761h9.852
		l0.019,8.761H51.19z"/>
	<path fill="#FFFFFF" d="M80.72,17.76h-3.215v-3.839h2.817c0.198,0,0.36-0.164,0.36-0.366v-0.664c0-0.202-0.162-0.366-0.36-0.366
		h-2.817V9.539c0-0.202-0.162-0.366-0.36-0.366h-0.923c-0.2,0-0.362,0.164-0.362,0.366v8.222h-2.624v-6.756
		c0-0.202-0.162-0.366-0.362-0.366h-0.925c-0.199,0-0.361,0.164-0.361,0.366v6.756h-0.531c-0.2,0-0.362,0.165-0.362,0.367v0.665
		c0,0.202,0.162,0.366,0.362,0.366h9.664c0.199,0,0.361-0.164,0.361-0.366v-0.665C81.081,17.925,80.919,17.76,80.72,17.76z"/>
	<path fill="#FFFFFF" d="M78.811,23.687c-0.354,0.332-0.911,0.841-1.306,1.201v-4.667c0-0.202-0.162-0.367-0.36-0.367h-0.923
		c-0.2,0-0.362,0.165-0.362,0.367v6.041l-4.782,4.136c-0.109,0.091-0.185,0.257-0.185,0.4v1.188l0.048,0.303h0.228l0.14-0.024
		l9.389-8.044c0.109-0.091,0.186-0.257,0.186-0.403v-1.9l-0.369,0.29C79.983,22.625,79.41,23.124,78.811,23.687z"/>
	<path fill="#FFFFFF" d="M72.069,26.809l1.523-6.12c0.026-0.105,0.004-0.213-0.061-0.293l-0.151-0.124h-1.034
		c-0.177,0-0.345,0.132-0.389,0.309l-1.521,6.117c-0.027,0.104-0.007,0.21,0.057,0.291l0.152,0.127h1.034
		C71.858,27.116,72.024,26.985,72.069,26.809z"/>
	<path fill="#FFFFFF" d="M87.735,25.329v-7.83c0-0.203-0.163-0.366-0.363-0.366h-0.924c-0.198,0-0.361,0.163-0.361,0.366v7.846
		l-4.794,4.428c-0.101,0.094-0.171,0.257-0.171,0.396v1.296l0.044,0.301h0.227l0.146-0.028l5.42-5.072l5.157,5.006l0.121,0.095
		h0.092l0.271-0.073v-1.523c0-0.138-0.07-0.302-0.17-0.398L87.735,25.329z"/>
	<path fill="#FFFFFF" d="M92.834,10.638H80.688c-0.198,0-0.359,0.164-0.359,0.366v0.666c0,0.202,0.161,0.366,0.359,0.366h4.464
		l-0.416,2.581h-3.056c-0.2,0-0.362,0.165-0.362,0.367v11.347c0,0.202,0.162,0.366,0.362,0.366h0.926
		c0.198,0,0.359-0.164,0.359-0.366V16.017h7.689v10.105c0,0.202,0.162,0.368,0.361,0.368h0.925c0.2,0,0.362-0.166,0.362-0.368
		V14.985c0-0.202-0.162-0.367-0.362-0.367h-5.556l0.427-2.581h6.021c0.199,0,0.361-0.164,0.361-0.366v-0.666
		C93.195,10.802,93.033,10.638,92.834,10.638z"/>
	<path fill="#FFFFFF" d="M142.885,11.017h-13.636c-0.2,0-0.362,0.164-0.362,0.366v0.666c0,0.201,0.162,0.366,0.362,0.366h4.175
		l-3.955,8.03c-0.051,0.106-0.048,0.22,0.009,0.311l0.144,0.142h1.427l0.062-0.131c0.595-1.255,1.29-2.667,2.084-4.237
		c0.634-1.256,1.647-3.332,2.027-4.114h6.379v5.304h-5.784c-0.165,0-0.332,0.114-0.396,0.271l-0.275,0.682
		c-0.044,0.105-0.035,0.218,0.022,0.306l0.147,0.139h7.571c0.2,0,0.362-0.164,0.362-0.367v-7.365
		C143.247,11.181,143.085,11.017,142.885,11.017z"/>
	<path fill="#FFFFFF" d="M142.885,21.595h-13.238c-0.198,0-0.36,0.164-0.36,0.366v9.567c0,0.202,0.162,0.366,0.36,0.366h13.238
		c0.2,0,0.362-0.164,0.362-0.366v-9.567C143.247,21.759,143.085,21.595,142.885,21.595z M130.933,30.497v-7.504H141.6v7.504H130.933
		z"/>
	<path fill="#FFFFFF" d="M128.883,13.742h-3.313v-3.719c0-0.202-0.162-0.367-0.362-0.367h-0.922c-0.2,0-0.362,0.165-0.362,0.367
		v3.719h-2.917c-0.199,0-0.36,0.164-0.36,0.367v0.77c0,0.202,0.161,0.366,0.36,0.366h2.917v5.721l-3.005,1.12
		c-0.157,0.061-0.272,0.229-0.272,0.399v1.227l3.277-1.132v7.917h-1.923c-0.118,0-0.22,0.057-0.272,0.15l-0.052,0.2l0.522,0.827
		c0.084,0.13,0.248,0.221,0.398,0.221h2.61c0.2,0,0.362-0.164,0.362-0.366v-9.583l3.403-1.226c0.156-0.062,0.271-0.229,0.271-0.398
		v-1.345l-0.312,0.121c-0.531,0.208-1.129,0.457-1.793,0.732c-0.399,0.17-1.087,0.43-1.57,0.61v-5.196h3.313
		c0.2,0,0.362-0.164,0.362-0.366v-0.77C129.245,13.906,129.083,13.742,128.883,13.742z"/>
	<path fill="#FFFFFF" d="M117.862,11.854h-5.94l-0.43-2.191c-0.036-0.185-0.2-0.321-0.384-0.321h-1.324l0.041,0.262
		c0.064,0.425,0.15,0.848,0.25,1.276c0.059,0.241,0.136,0.664,0.19,0.975h-6.139c-0.2,0-0.362,0.165-0.362,0.367v0.561
		c0,0.203,0.162,0.366,0.362,0.366h13.735c0.199,0,0.361-0.163,0.361-0.366v-0.561C118.224,12.019,118.062,11.854,117.862,11.854z"
		/>
	<path fill="#FFFFFF" d="M101.675,16.881h-0.924c-0.003,0-0.005,0.003-0.008,0.003v-1.536h2.42c0.198,0,0.361-0.166,0.361-0.368
		v-0.663c0-0.202-0.163-0.366-0.361-0.366h-2.42V9.814c0-0.202-0.162-0.367-0.361-0.367h-0.924c-0.2,0-0.362,0.165-0.362,0.367
		v4.137h-3.112c-0.199,0-0.36,0.164-0.36,0.366v0.663c0,0.202,0.161,0.368,0.36,0.368h2.341l-2.753,9.105
		c-0.032,0.105-0.015,0.213,0.047,0.296l0.149,0.129h1.447l0.046-0.167c0.326-1.178,0.71-2.443,1.14-3.763
		c0.208-0.646,0.477-1.525,0.695-2.26v12.942c0,0.203,0.162,0.367,0.362,0.367h0.924c0.199,0,0.361-0.164,0.361-0.367V18.02
		l1.793,4.388c0.063,0.157,0.23,0.271,0.398,0.271h0.924c0.112,0,0.21-0.05,0.269-0.138l0.07-0.192l-2.127-5.2
		C102.005,16.995,101.838,16.881,101.675,16.881z"/>
	<path fill="#FFFFFF" d="M104.739,20.992h0.085c0.113,0,0.22-0.049,0.292-0.133l4.939-5.673c0.066-0.079,0.1-0.18,0.092-0.281
		c-0.006-0.104-0.055-0.2-0.132-0.266l-0.615-0.538l-0.17-0.093h-0.084c-0.113,0-0.222,0.049-0.293,0.135l-4.938,5.672
		c-0.067,0.077-0.102,0.178-0.094,0.28c0.008,0.104,0.054,0.199,0.133,0.267l0.615,0.536L104.739,20.992z"/>
	<path fill="#FFFFFF" d="M113.084,14.144c-0.074-0.087-0.181-0.136-0.294-0.136l-0.192,0.039l-0.676,0.59
		c-0.079,0.067-0.128,0.163-0.135,0.268c-0.008,0.102,0.026,0.202,0.095,0.282l4.936,5.672c0.074,0.084,0.181,0.133,0.294,0.133
		l0.191-0.038l0.679-0.592c0.078-0.067,0.125-0.163,0.132-0.267c0.008-0.103-0.025-0.203-0.095-0.28L113.084,14.144z"/>
	<path fill="#FFFFFF" d="M112.147,25.518l3.9-3.802c0.067-0.083,0.096-0.185,0.084-0.289c-0.012-0.104-0.063-0.195-0.144-0.258
		l-0.64-0.511l-0.164-0.082h-0.077c-0.118,0-0.229,0.053-0.285,0.124l-3.809,3.712l-3.79-3.692
		c-0.072-0.091-0.184-0.144-0.303-0.144l-0.181,0.034l-0.698,0.557c-0.082,0.064-0.133,0.156-0.146,0.26
		c-0.013,0.104,0.018,0.206,0.101,0.309l3.883,3.782l-5.421,5.285c-0.144,0.139-0.165,0.377-0.047,0.539l0.475,0.663
		c0.071,0.098,0.179,0.154,0.297,0.154l0.19-0.041l5.64-5.495l5.574,5.431l0.163,0.105h0.093c0.118,0,0.226-0.057,0.297-0.155
		l0.476-0.661c0.117-0.163,0.096-0.401-0.048-0.54L112.147,25.518z"/>
</g>
<path fill="#2698F0" d="M182.843,19.555c0,0.438-0.355,0.794-0.794,0.794h-31.973c-0.438,0-0.794-0.355-0.794-0.794v-9.234
	c0-0.439,0.355-0.794,0.794-0.794h31.973c0.438,0,0.794,0.354,0.794,0.794V19.555z"/>
<g>
	<path fill="#FFFFFF" d="M155.102,22.259c0.257-0.224,0.514-0.224,0.771,0c1.799,1.729,3.566,2.845,5.302,3.347
		c0.192,0.335,0.096,0.503-0.29,0.503c-1.991-0.671-3.727-1.758-5.205-3.265c-0.128-0.167-0.257-0.167-0.385,0
		c-1.35,1.396-3.117,2.428-5.302,3.097c-0.385-0.11-0.418-0.278-0.096-0.503C151.824,24.937,153.56,23.877,155.102,22.259z
		 M155.39,25.272c0.193-0.224,0.387-0.224,0.579,0v2.176h4.048c0.321,0.167,0.321,0.334,0,0.502h-4.048v3.18h5.013
		c0.257,0.168,0.257,0.336,0,0.502h-10.797c-0.257-0.111-0.257-0.278,0-0.502h1.543v-4.352c0.192-0.223,0.386-0.223,0.578,0v4.352
		h3.084V25.272z"/>
	<path fill="#FFFFFF" d="M166.379,22.342v8.871h2.507v-8.871c0.192-0.223,0.386-0.223,0.578,0v8.871h3.662
		c0.257,0.168,0.257,0.335,0,0.502h-10.795c-0.258-0.167-0.258-0.334,0-0.502h3.47v-8.871
		C165.994,22.12,166.187,22.12,166.379,22.342z M163.294,23.765c0.772,2.288,1.286,4.129,1.543,5.524
		c-0.129,0.334-0.321,0.361-0.578,0.082c-0.321-1.506-0.836-3.318-1.542-5.439C162.78,23.542,162.974,23.487,163.294,23.765z
		 M172.066,23.681c0.321-0.223,0.513-0.167,0.578,0.168c-0.321,2.008-0.933,3.933-1.831,5.774c-0.322,0.167-0.515,0.111-0.579-0.168
		C171.006,27.894,171.616,25.969,172.066,23.681z"/>
	<path fill="#FFFFFF" d="M175.15,22.593c0.193-0.223,0.386-0.223,0.578,0v2.344h1.639v-2.678c0.193-0.279,0.386-0.279,0.579,0v2.678
		h1.156c0.257,0.167,0.257,0.335,0,0.501h-3.374v1.675h1.446c0.835,0,1.221,0.335,1.156,1.004v3.181
		c-0.192,0.334-0.385,0.334-0.578,0v-3.013c0.064-0.446-0.192-0.67-0.771-0.67h-1.253c0.063,1.675-0.226,2.985-0.867,3.934
		c-0.321,0.167-0.482,0.083-0.482-0.251c0.579-0.781,0.836-2.008,0.771-3.683V22.593z M179.874,26.694V23.43
		c0-0.502,0.353-0.78,1.06-0.837c1.606,0,3.052-0.111,4.338-0.334c0.32,0.166,0.32,0.334,0,0.501
		c-1.286,0.168-2.603,0.279-3.952,0.335c-0.578,0-0.867,0.167-0.867,0.503v1.339h3.759c0.771,0,1.124,0.307,1.061,0.92
		c-0.193,1.116-0.836,2.316-1.929,3.599c0.771,0.727,1.607,1.312,2.507,1.758c0.193,0.335,0.097,0.502-0.289,0.502
		c-0.836-0.446-1.704-1.061-2.603-1.841c-1.029,0.948-1.961,1.591-2.795,1.925c-0.386,0-0.482-0.14-0.289-0.418
		c1.027-0.447,1.927-1.089,2.698-1.926c-1.028-1.171-1.734-2.51-2.12-4.018v1.256c0.063,2.12-0.387,3.794-1.35,5.021
		c-0.386,0.112-0.547,0-0.481-0.334C179.52,30.266,179.938,28.703,179.874,26.694z M182.958,29.038
		c0.835-0.893,1.414-1.896,1.735-3.013c0.063-0.391-0.162-0.587-0.675-0.587h-2.988C181.416,26.946,182.058,28.145,182.958,29.038z"
		/>
</g>
<g>
	<path fill="#FFFFFF" d="M151.878,11.355h3.313c1.316,0,2.512,0.401,2.512,1.669c0,0.716-0.548,1.374-1.36,1.526v0.019
		c1.01,0.115,1.657,0.772,1.657,1.66c0,0.648-0.264,1.936-2.809,1.936h-3.313V11.355z M152.624,14.34h2.567
		c1.185,0,1.766-0.515,1.766-1.154c0-0.849-0.592-1.277-1.766-1.277h-2.567V14.34z M152.624,17.612h2.567
		c1.107,0,2.063-0.296,2.063-1.402c0-0.877-0.746-1.316-2.063-1.316h-2.567V17.612z"/>
	<path fill="#FFFFFF" d="M160.298,11.355h5.408v0.554h-4.662v2.46h4.366v0.554h-4.366v2.689h4.718v0.553h-5.464V11.355z"/>
	<path fill="#FFFFFF" d="M167.061,11.355h6.209v0.554h-2.731v6.256h-0.746v-6.256h-2.731V11.355z"/>
	<path fill="#FFFFFF" d="M176.653,11.355h0.834l3.071,6.81h-0.801l-0.954-2.117h-3.565l-0.944,2.117h-0.801L176.653,11.355z
		 M175.469,15.495h3.082l-1.514-3.491L175.469,15.495z"/>
</g>
</svg>
