<?xml version="1.0" encoding="utf-8"?>
<!-- Generator: Adobe Illustrator 16.0.0, SVG Export Plug-In . SVG Version: 6.00 Build 0)  -->
<!DOCTYPE svg PUBLIC "-//W3C//DTD SVG 1.1//EN" "http://www.w3.org/Graphics/SVG/1.1/DTD/svg11.dtd">
<svg version="1.1" id="图层_1" xmlns="http://www.w3.org/2000/svg" xmlns:xlink="http://www.w3.org/1999/xlink" x="0px" y="0px"
	 width="94.667px" height="41px" viewBox="0 0 94.667 41" enable-background="new 0 0 94.667 41" xml:space="preserve">
<linearGradient id="SVGID_1_" gradientUnits="userSpaceOnUse" x1="-940.73" y1="-658.3789" x2="-940.73" y2="-688.6738">
	<stop  offset="0" style="stop-color:#2D5F9C"/>
	<stop  offset="0.1741" style="stop-color:#356BAD"/>
	<stop  offset="0.4613" style="stop-color:#407BC3"/>
	<stop  offset="0.7391" style="stop-color:#4784D0"/>
	<stop  offset="0.9946" style="stop-color:#4987D4"/>
</linearGradient>
<path fill="url(#SVGID_1_)" d="M-936.27-659.911c-7.212,4.04-13.015-0.395-17.056-7.61c-4.043-7.213-4.791-14.476,2.426-18.519
	c7.215-4.04,20.547-3.821,24.588,3.393C-922.272-675.435-929.055-663.954-936.27-659.911z"/>
<g opacity="0.95">
	<linearGradient id="SVGID_2_" gradientUnits="userSpaceOnUse" x1="-925.0088" y1="-662.125" x2="-925.0088" y2="-700.1895">
		<stop  offset="0" style="stop-color:#1CA5F1"/>
		<stop  offset="0.3294" style="stop-color:#23B9F8"/>
		<stop  offset="0.6756" style="stop-color:#28C6FD"/>
		<stop  offset="0.9946" style="stop-color:#2ACAFF"/>
	</linearGradient>
	<path fill="url(#SVGID_2_)" d="M-930.492-662.125c-10.511,0-14.193-8.519-14.193-19.031c0-10.511,3.683-19.033,14.193-19.033
		c10.51,0,25.159,8.522,25.159,19.033C-905.333-670.644-919.982-662.125-930.492-662.125z"/>
</g>
<g opacity="0.95">
	<g opacity="0.25">
		<path fill="#2474BC" d="M-934.04-671.77c-10.51,0-14.192-8.517-14.192-19.03c0-10.511,3.683-19.029,14.192-19.029
			c10.511,0,25.161,8.519,25.161,19.033C-908.878-680.286-923.529-671.77-934.04-671.77z"/>
	</g>
	<g>
		<linearGradient id="SVGID_3_" gradientUnits="userSpaceOnUse" x1="-928.5552" y1="-710.8291" x2="-928.5552" y2="-672.7695">
			<stop  offset="0" style="stop-color:#BD69FE"/>
			<stop  offset="0.0226" style="stop-color:#B66AFD"/>
			<stop  offset="0.1932" style="stop-color:#876EF3"/>
			<stop  offset="0.3635" style="stop-color:#6071EB"/>
			<stop  offset="0.5305" style="stop-color:#4174E5"/>
			<stop  offset="0.6934" style="stop-color:#2B75E1"/>
			<stop  offset="0.8503" style="stop-color:#1E77DE"/>
			<stop  offset="0.9946" style="stop-color:#1A77DD"/>
		</linearGradient>
		<path fill="url(#SVGID_3_)" d="M-934.04-672.77c-10.51,0-14.192-8.517-14.192-19.03c0-10.511,3.683-19.029,14.192-19.029
			c10.511,0,25.161,8.519,25.161,19.033C-908.878-681.286-923.529-672.77-934.04-672.77z"/>
	</g>
</g>
<g>
	<path fill="#FFFFFF" d="M-929.333-697.392C-929.333-697.392-929.333-697.392-929.333-697.392c0.006,0.003,0.009,0.003,0.015,0.003
		L-929.333-697.392z"/>
	<path fill="#FFFFFF" d="M-923.585-699.041c-0.561,0-1.015,0.452-1.015,1.016c0,0.064,0.025,0.123,0.039,0.187
		c-1.261,0.681-2.864,1.246-3.635,1.499c-0.091-0.147-0.277-0.401-0.607-0.679c0.771-0.513,2.25-1.544,3.325-2.573
		c0.153,0.088,0.319,0.15,0.507,0.15c0.579,0,1.042-0.465,1.042-1.038c0-0.577-0.463-1.042-1.042-1.042
		c-0.57,0-1.035,0.465-1.035,1.042c0,0.195,0.068,0.367,0.162,0.523c-1.115,1.063-2.719,2.163-3.409,2.617
		c-0.027-0.019-0.049-0.034-0.078-0.053c-0.436-0.13-0.822-0.14-1.182-0.083c0.533-0.685,1.215-1.56,1.71-2.19
		c0.088,0.025,0.179,0.056,0.276,0.056c0.542,0,0.984-0.444,0.984-0.981c0-0.55-0.442-0.992-0.984-0.992
		c-0.548,0-0.99,0.442-0.99,0.992c0,0.254,0.105,0.483,0.269,0.659c-0.672,0.861-1.663,2.135-2.169,2.781
		c-0.427,0.237-0.833,0.567-1.258,0.938c-0.973,0.846-1.949,1.681-2.921,2.53c1.217-0.011,2.452-0.167,3.666-0.082
		c1.461,0.103,2.649,0.799,3.131,2.233c0.503,1.495,0.288,3.185-0.008,4.699c-0.378,1.938-0.993,3.837-1.793,5.641
		c-1.165,2.651-2.772,5.044-4.509,7.35c-0.223,0.292-0.633,0.786-0.633,0.786c5.136,0.78,10.437-1.399,10.437-1.399
		c1.768-6.736-0.781-16.229-0.781-16.229c-0.452-1.716-1.012-3.602-1.869-5.19c0.806-0.27,2.351-0.822,3.61-1.499
		c0.186,0.217,0.452,0.36,0.76,0.36c0.562,0,1.014-0.456,1.014-1.013C-922.572-698.589-923.024-699.041-923.585-699.041z"/>
</g>
<g>
	<path fill="#FFFFFF" d="M-867.59-683.281h-5.56v-11.859h3.813c0.271,0,0.489-0.221,0.489-0.496v-0.901
		c0-0.273-0.219-0.495-0.489-0.495h-25.853c-0.269,0-0.488,0.222-0.488,0.495v0.901c0,0.275,0.22,0.496,0.488,0.496h4.215v11.859
		h-5.56c-0.271,0-0.49,0.223-0.49,0.497v0.896c0,0.275,0.219,0.499,0.49,0.499h5.56v1.912c0,0.063-0.024,0.177-0.05,0.23
		l-4.679,10.148c-0.068,0.14-0.062,0.296,0.015,0.417l0.194,0.193h1.556c0.218,0,0.444-0.145,0.539-0.349l4.547-9.862
		c0.063-0.134,0.109-0.339,0.109-0.494v-2.196h13.364v12.55c0,0.272,0.22,0.497,0.488,0.497h1.251c0.271,0,0.49-0.225,0.49-0.497
		v-12.55h5.56c0.27,0,0.488-0.224,0.488-0.499v-0.896C-867.102-683.059-867.321-683.281-867.59-683.281z M-888.744-683.281v-11.859
		h13.337l0.025,11.859H-888.744z"/>
	<path fill="#FFFFFF" d="M-848.768-687.394h-4.352v-5.194h3.813c0.269,0,0.489-0.223,0.489-0.498v-0.898
		c0-0.272-0.221-0.494-0.489-0.494h-3.813v-4.043c0-0.275-0.219-0.497-0.487-0.497h-1.249c-0.272,0-0.491,0.222-0.491,0.497v11.128
		h-3.553v-9.145c0-0.273-0.219-0.495-0.49-0.495h-1.252c-0.27,0-0.489,0.222-0.489,0.495v9.145h-0.719
		c-0.271,0-0.49,0.226-0.49,0.498v0.901c0,0.272,0.219,0.495,0.49,0.495h13.082c0.27,0,0.49-0.223,0.49-0.495v-0.901
		C-848.278-687.168-848.499-687.394-848.768-687.394z"/>
	<path fill="#FFFFFF" d="M-851.352-679.367c-0.479,0.448-1.233,1.137-1.768,1.625v-6.318c0-0.272-0.219-0.497-0.487-0.497h-1.249
		c-0.272,0-0.491,0.225-0.491,0.497v8.178l-6.474,5.601c-0.148,0.121-0.25,0.346-0.25,0.542v1.607l0.065,0.409h0.307l0.189-0.034
		l12.711-10.888c0.147-0.124,0.251-0.349,0.251-0.547v-2.573l-0.5,0.394C-849.764-680.806-850.54-680.132-851.352-679.367z"/>
	<path fill="#FFFFFF" d="M-860.478-675.143l2.063-8.284c0.035-0.143,0.005-0.288-0.082-0.396l-0.205-0.169h-1.4
		c-0.239,0-0.467,0.181-0.526,0.418l-2.058,8.281c-0.037,0.143-0.009,0.286,0.077,0.394l0.205,0.172h1.4
		C-860.763-674.728-860.539-674.904-860.478-675.143z"/>
	<path fill="#FFFFFF" d="M-839.269-677.146v-10.6c0-0.275-0.222-0.496-0.492-0.496h-1.251c-0.269,0-0.489,0.221-0.489,0.496v10.62
		l-6.489,5.994c-0.137,0.128-0.232,0.35-0.232,0.537v1.756l0.06,0.407h0.308l0.197-0.04l7.338-6.866l6.981,6.776l0.164,0.13h0.124
		l0.368-0.101v-2.063c0-0.185-0.095-0.407-0.23-0.539L-839.269-677.146z"/>
	<path fill="#FFFFFF" d="M-832.368-697.033h-16.442c-0.269,0-0.486,0.222-0.486,0.495v0.901c0,0.275,0.218,0.496,0.486,0.496h6.044
		l-0.563,3.493h-4.137c-0.271,0-0.49,0.225-0.49,0.498v15.362c0,0.271,0.219,0.494,0.49,0.494h1.253
		c0.269,0,0.486-0.223,0.486-0.494v-13.964h10.411v13.681c0,0.271,0.219,0.496,0.488,0.496h1.253c0.271,0,0.489-0.225,0.489-0.496
		v-15.079c0-0.273-0.219-0.498-0.489-0.498h-7.521l0.577-3.493h8.151c0.27,0,0.49-0.221,0.49-0.496v-0.901
		C-831.877-696.812-832.098-697.033-832.368-697.033z"/>
	<path fill="#FFFFFF" d="M-764.609-696.521h-18.46c-0.271,0-0.491,0.223-0.491,0.495v0.901c0,0.272,0.221,0.496,0.491,0.496h5.651
		l-5.354,10.871c-0.069,0.146-0.064,0.298,0.012,0.42l0.194,0.193h1.932l0.084-0.178c0.805-1.699,1.745-3.61,2.82-5.737
		c0.858-1.7,2.23-4.511,2.745-5.569h8.636v7.18h-7.831c-0.224,0-0.449,0.156-0.537,0.367l-0.372,0.924
		c-0.06,0.142-0.049,0.293,0.029,0.411l0.2,0.188h10.25c0.271,0,0.49-0.222,0.49-0.497v-9.971
		C-764.119-696.298-764.337-696.521-764.609-696.521z"/>
	<path fill="#FFFFFF" d="M-764.609-682.199h-17.922c-0.269,0-0.487,0.222-0.487,0.494v12.954c0,0.271,0.219,0.494,0.487,0.494
		h17.922c0.271,0,0.49-0.223,0.49-0.494v-12.954C-764.119-681.978-764.337-682.199-764.609-682.199z M-780.79-670.15v-10.158h14.441
		v10.158H-780.79z"/>
	<path fill="#FFFFFF" d="M-783.564-692.831h-4.485v-5.034c0-0.275-0.219-0.498-0.491-0.498h-1.247c-0.271,0-0.49,0.223-0.49,0.498
		v5.034h-3.949c-0.27,0-0.487,0.221-0.487,0.496v1.042c0,0.272,0.218,0.494,0.487,0.494h3.949v7.745l-4.068,1.518
		c-0.212,0.082-0.368,0.31-0.368,0.54v1.66l4.437-1.53v10.716h-2.604c-0.159,0-0.297,0.076-0.368,0.204l-0.07,0.271l0.707,1.118
		c0.113,0.178,0.336,0.3,0.54,0.3h3.532c0.272,0,0.491-0.223,0.491-0.494v-12.976l4.608-1.657c0.211-0.085,0.366-0.311,0.366-0.539
		v-1.823l-0.421,0.164c-0.719,0.283-1.528,0.619-2.428,0.992c-0.541,0.229-1.471,0.582-2.126,0.827v-7.036h4.485
		c0.271,0,0.489-0.222,0.489-0.494v-1.042C-783.075-692.61-783.293-692.831-783.564-692.831z"/>
	<path fill="#FFFFFF" d="M-798.484-695.388h-8.042l-0.582-2.968c-0.049-0.249-0.271-0.434-0.519-0.434h-1.793l0.055,0.354
		c0.088,0.573,0.203,1.147,0.339,1.727c0.079,0.328,0.184,0.899,0.258,1.32h-8.311c-0.271,0-0.491,0.225-0.491,0.496v0.759
		c0,0.275,0.22,0.497,0.491,0.497h18.595c0.27,0,0.489-0.222,0.489-0.497v-0.759C-797.995-695.163-798.214-695.388-798.484-695.388z
		"/>
	<path fill="#FFFFFF" d="M-820.398-688.583h-1.251c-0.004,0-0.007,0.006-0.011,0.006v-2.08h3.276c0.268,0,0.488-0.226,0.488-0.498
		v-0.899c0-0.271-0.221-0.494-0.488-0.494h-3.276v-5.601c0-0.274-0.219-0.496-0.488-0.496h-1.252c-0.271,0-0.489,0.222-0.489,0.496
		v5.601h-4.215c-0.27,0-0.487,0.223-0.487,0.494v0.899c0,0.272,0.218,0.498,0.487,0.498h3.17l-3.728,12.326
		c-0.043,0.143-0.02,0.287,0.063,0.402l0.203,0.174h1.959l0.062-0.228c0.442-1.595,0.962-3.308,1.543-5.092
		c0.281-0.876,0.645-2.066,0.942-3.06v17.52c0,0.274,0.219,0.497,0.489,0.497h1.252c0.27,0,0.488-0.223,0.488-0.497v-18.427
		l2.427,5.941c0.085,0.211,0.313,0.367,0.54,0.367h1.251c0.151,0,0.283-0.068,0.363-0.188l0.096-0.258l-2.881-7.041
		C-819.952-688.429-820.177-688.583-820.398-688.583z"/>
	<path fill="#FFFFFF" d="M-816.25-683.018h0.116c0.152,0,0.297-0.065,0.395-0.179l6.688-7.682c0.089-0.105,0.134-0.243,0.124-0.381
		c-0.009-0.14-0.074-0.27-0.179-0.359l-0.832-0.727l-0.23-0.127h-0.114c-0.153,0-0.3,0.066-0.396,0.182l-6.685,7.679
		c-0.092,0.106-0.138,0.24-0.128,0.381c0.011,0.141,0.072,0.27,0.181,0.36l0.832,0.727L-816.25-683.018z"/>
	<path fill="#FFFFFF" d="M-804.953-692.286c-0.101-0.119-0.244-0.186-0.398-0.186l-0.261,0.053l-0.914,0.798
		c-0.107,0.093-0.173,0.223-0.184,0.362c-0.01,0.138,0.037,0.275,0.129,0.383l6.683,7.68c0.1,0.113,0.244,0.179,0.396,0.179
		l0.26-0.053l0.919-0.8c0.106-0.091,0.169-0.22,0.179-0.36s-0.034-0.274-0.129-0.381L-804.953-692.286z"/>
	<path fill="#FFFFFF" d="M-806.22-676.891l5.279-5.145c0.092-0.113,0.13-0.251,0.113-0.392c-0.016-0.141-0.084-0.265-0.193-0.35
		l-0.866-0.692l-0.223-0.111h-0.104c-0.159,0-0.311,0.072-0.385,0.169l-5.156,5.024l-5.132-4.997
		c-0.098-0.124-0.248-0.196-0.409-0.196l-0.244,0.048l-0.945,0.754c-0.111,0.087-0.181,0.211-0.197,0.352
		c-0.018,0.141,0.023,0.278,0.137,0.418l5.257,5.118l-7.339,7.155c-0.195,0.188-0.224,0.51-0.064,0.729l0.643,0.899
		c0.096,0.133,0.242,0.208,0.402,0.208l0.258-0.055l7.635-7.44l7.547,7.354l0.22,0.142h0.126c0.16,0,0.306-0.075,0.402-0.211
		l0.643-0.894c0.16-0.223,0.13-0.545-0.063-0.732L-806.22-676.891z"/>
</g>
<linearGradient id="SVGID_4_" gradientUnits="userSpaceOnUse" x1="12.7109" y1="39.7168" x2="12.7109" y2="17.5068">
	<stop  offset="0" style="stop-color:#2D5F9C"/>
	<stop  offset="0.1741" style="stop-color:#356BAD"/>
	<stop  offset="0.4613" style="stop-color:#407BC3"/>
	<stop  offset="0.7391" style="stop-color:#4784D0"/>
	<stop  offset="0.9946" style="stop-color:#4987D4"/>
</linearGradient>
<path fill="url(#SVGID_4_)" d="M15.98,38.593c-5.287,2.962-9.541-0.289-12.503-5.579c-2.964-5.287-3.513-10.611,1.778-13.575
	c5.289-2.962,15.063-2.802,18.025,2.486C26.242,27.213,21.27,35.629,15.98,38.593z"/>
<g opacity="0.95">
	<linearGradient id="SVGID_5_" gradientUnits="userSpaceOnUse" x1="24.2363" y1="36.9697" x2="24.2363" y2="9.0654">
		<stop  offset="0" style="stop-color:#1CA5F1"/>
		<stop  offset="0.3294" style="stop-color:#23B9F8"/>
		<stop  offset="0.6756" style="stop-color:#28C6FD"/>
		<stop  offset="0.9946" style="stop-color:#2ACAFF"/>
	</linearGradient>
	<path fill="url(#SVGID_5_)" d="M20.217,36.97c-7.705,0-10.405-6.245-10.405-13.951c0-7.705,2.7-13.953,10.405-13.953
		c7.704,0,18.443,6.248,18.443,13.953C38.66,30.725,27.921,36.97,20.217,36.97z"/>
</g>
<g opacity="0.95">
	<g opacity="0.25">
		<path fill="#2474BC" d="M17.616,30.166c-7.705,0-10.404-6.243-10.404-13.95c0-7.705,2.699-13.95,10.404-13.95
			s18.444,6.245,18.444,13.953C36.061,23.923,25.321,30.166,17.616,30.166z"/>
	</g>
	<g>
		<linearGradient id="SVGID_6_" gradientUnits="userSpaceOnUse" x1="21.6367" y1="1.2656" x2="21.6367" y2="29.166">
			<stop  offset="0" style="stop-color:#BD69FE"/>
			<stop  offset="0.0226" style="stop-color:#B66AFD"/>
			<stop  offset="0.1932" style="stop-color:#876EF3"/>
			<stop  offset="0.3635" style="stop-color:#6071EB"/>
			<stop  offset="0.5305" style="stop-color:#4174E5"/>
			<stop  offset="0.6934" style="stop-color:#2B75E1"/>
			<stop  offset="0.8503" style="stop-color:#1E77DE"/>
			<stop  offset="0.9946" style="stop-color:#1A77DD"/>
		</linearGradient>
		<path fill="url(#SVGID_6_)" d="M17.616,29.166c-7.705,0-10.404-6.243-10.404-13.95c0-7.705,2.699-13.95,10.404-13.95
			s18.444,6.245,18.444,13.953C36.061,22.923,25.321,29.166,17.616,29.166z"/>
	</g>
</g>
<g>
	<polygon fill="#FFFFFF" points="21.066,11.116 21.067,11.116 21.077,11.118 	"/>
	<path fill="#FFFFFF" d="M25.279,9.907c-0.41,0-0.743,0.331-0.743,0.744c0,0.048,0.019,0.091,0.028,0.138
		c-0.924,0.498-2.1,0.913-2.665,1.099c-0.066-0.108-0.203-0.294-0.445-0.498c0.565-0.376,1.649-1.132,2.438-1.886
		c0.112,0.064,0.233,0.109,0.371,0.109c0.425,0,0.764-0.34,0.764-0.761c0-0.423-0.339-0.764-0.764-0.764
		c-0.418,0-0.759,0.341-0.759,0.764c0,0.144,0.05,0.27,0.119,0.384c-0.818,0.779-1.993,1.586-2.5,1.919
		c-0.02-0.014-0.035-0.025-0.057-0.039c-0.319-0.095-0.603-0.103-0.866-0.061c0.391-0.502,0.891-1.144,1.253-1.605
		c0.064,0.019,0.132,0.04,0.203,0.04c0.397,0,0.722-0.325,0.722-0.719c0-0.403-0.324-0.728-0.722-0.728
		c-0.401,0-0.726,0.324-0.726,0.728c0,0.186,0.077,0.354,0.196,0.482c-0.492,0.632-1.219,1.565-1.59,2.039
		c-0.313,0.174-0.61,0.416-0.922,0.688c-0.713,0.62-1.429,1.231-2.142,1.854c0.893-0.008,1.798-0.122,2.688-0.06
		c1.071,0.075,1.942,0.585,2.295,1.637c0.369,1.097,0.212,2.335-0.006,3.445c-0.276,1.42-0.728,2.813-1.313,4.135
		c-0.854,1.943-2.033,3.697-3.306,5.388c-0.163,0.214-0.464,0.576-0.464,0.576c3.765,0.572,7.65-1.025,7.65-1.025
		c1.296-4.938-0.572-11.897-0.572-11.897c-0.332-1.258-0.742-2.641-1.37-3.806c0.59-0.197,1.723-0.603,2.646-1.099
		c0.136,0.159,0.331,0.265,0.557,0.265c0.412,0,0.743-0.335,0.743-0.743C26.022,10.238,25.691,9.907,25.279,9.907z"/>
</g>
<g>
	<path fill="#FFFFFF" d="M66.328,21.461h-4.075v-8.694h2.795c0.198,0,0.358-0.162,0.358-0.363v-0.661c0-0.2-0.16-0.363-0.358-0.363
		H46.096c-0.197,0-0.357,0.163-0.357,0.363v0.661c0,0.201,0.16,0.363,0.357,0.363h3.09v8.694H45.11
		c-0.199,0-0.359,0.163-0.359,0.364v0.657c0,0.201,0.16,0.365,0.359,0.365h4.075v1.402c0,0.046-0.018,0.129-0.036,0.169
		l-3.431,7.439c-0.05,0.103-0.045,0.217,0.012,0.306l0.142,0.142h1.141c0.16,0,0.326-0.106,0.396-0.256l3.333-7.229
		c0.046-0.099,0.08-0.248,0.08-0.362v-1.61h9.797v9.2c0,0.2,0.161,0.364,0.358,0.364h0.917c0.198,0,0.359-0.164,0.359-0.364v-9.2
		h4.075c0.198,0,0.358-0.164,0.358-0.365v-0.657C66.687,21.624,66.526,21.461,66.328,21.461z M50.821,21.461v-8.694h9.777
		l0.019,8.694H50.821z"/>
	<path fill="#FFFFFF" d="M80.127,18.446h-3.19v-3.809h2.796c0.197,0,0.358-0.163,0.358-0.365v-0.658c0-0.2-0.161-0.362-0.358-0.362
		h-2.796v-2.964c0-0.202-0.16-0.364-0.356-0.364h-0.916c-0.2,0-0.36,0.162-0.36,0.364v8.158h-2.604v-6.704
		c0-0.2-0.16-0.363-0.359-0.363h-0.918c-0.197,0-0.358,0.163-0.358,0.363v6.704h-0.526c-0.199,0-0.359,0.165-0.359,0.364v0.661
		c0,0.2,0.16,0.363,0.359,0.363h9.59c0.197,0,0.359-0.163,0.359-0.363v-0.661C80.486,18.611,80.324,18.446,80.127,18.446z"/>
	<path fill="#FFFFFF" d="M78.232,24.33c-0.351,0.328-0.904,0.833-1.296,1.191V20.89c0-0.2-0.16-0.365-0.356-0.365h-0.916
		c-0.2,0-0.36,0.165-0.36,0.365v5.994l-4.745,4.106c-0.109,0.088-0.184,0.253-0.184,0.396v1.179l0.048,0.3h0.225l0.139-0.024
		l9.318-7.981c0.108-0.092,0.185-0.256,0.185-0.401v-1.887l-0.367,0.289C79.396,23.275,78.828,23.77,78.232,24.33z"/>
	<path fill="#FFFFFF" d="M71.543,27.427l1.512-6.073c0.025-0.104,0.004-0.211-0.061-0.29l-0.15-0.124h-1.026
		c-0.176,0-0.342,0.133-0.386,0.307l-1.509,6.07c-0.027,0.104-0.006,0.21,0.057,0.289l0.15,0.126h1.026
		C71.334,27.731,71.498,27.602,71.543,27.427z"/>
	<path fill="#FFFFFF" d="M87.091,25.958v-7.771c0-0.202-0.163-0.363-0.361-0.363h-0.917c-0.197,0-0.358,0.161-0.358,0.363v7.785
		l-4.758,4.395c-0.1,0.094-0.17,0.256-0.17,0.394v1.287l0.044,0.299h0.226l0.145-0.029l5.379-5.034l5.118,4.968l0.12,0.096h0.091
		l0.27-0.074v-1.512c0-0.136-0.069-0.299-0.168-0.396L87.091,25.958z"/>
	<path fill="#FFFFFF" d="M92.149,11.379H80.096c-0.196,0-0.356,0.163-0.356,0.363v0.661c0,0.201,0.16,0.363,0.356,0.363h4.431
		l-0.413,2.561h-3.032c-0.199,0-0.359,0.165-0.359,0.365v11.262c0,0.199,0.16,0.362,0.359,0.362H82c0.196,0,0.356-0.163,0.356-0.362
		V16.718h7.632v10.029c0,0.198,0.16,0.363,0.358,0.363h0.918c0.198,0,0.358-0.165,0.358-0.363V15.692c0-0.2-0.16-0.365-0.358-0.365
		h-5.514l0.423-2.561h5.976c0.198,0,0.359-0.162,0.359-0.363v-0.661C92.509,11.542,92.348,11.379,92.149,11.379z"/>
</g>
</svg>
