<?xml version="1.0" encoding="utf-8"?>
<!-- Generator: Adobe Illustrator 16.0.0, SVG Export Plug-In . SVG Version: 6.00 Build 0)  -->
<!DOCTYPE svg PUBLIC "-//W3C//DTD SVG 1.1//EN" "http://www.w3.org/Graphics/SVG/1.1/DTD/svg11.dtd">
<svg version="1.1" id="图层_1" xmlns="http://www.w3.org/2000/svg" xmlns:xlink="http://www.w3.org/1999/xlink" x="0px" y="0px"
	 width="299px" height="55.25px" viewBox="0 0 299 55.25" enable-background="new 0 0 299 55.25" xml:space="preserve">
<g>
	<path fill="#444444" d="M217.797,14.774c0.405,0.141,0.445,0.352,0.122,0.633c-2.271,0.353-5.593,0.6-9.97,0.739
		c-0.243,0-0.365,0.142-0.365,0.423v1.688h11.794c0.324,0.211,0.324,0.423,0,0.634h-11.794v2.006
		c0.081,2.252-0.527,4.223-1.823,5.911c-0.406,0.141-0.608,0.035-0.608-0.316c1.216-1.618,1.783-3.483,1.702-5.595v-4.54
		c0-0.563,0.365-0.844,1.095-0.844C211.92,15.443,215.203,15.196,217.797,14.774z M210.745,20.369h6.079
		c1.054,0,1.54,0.388,1.459,1.161v4.012c0.081,0.845-0.364,1.231-1.337,1.161h-6.444c-0.812,0.07-1.216-0.282-1.216-1.056V21.53
		C209.286,20.756,209.772,20.369,210.745,20.369z M217.554,21.635c0.081-0.422-0.203-0.633-0.851-0.633h-5.836
		c-0.568,0-0.852,0.211-0.852,0.633v3.801c0,0.492,0.243,0.703,0.729,0.634h6.079c0.567,0.069,0.811-0.142,0.729-0.634V21.635z"/>
	<path fill="#444444" d="M226.916,14.563c0.486-0.141,0.729-0.035,0.729,0.316c-1.541,2.041-3.161,3.555-4.863,4.539
		c2.106-0.069,5.309-0.316,9.604-0.738c-0.486-0.493-1.176-1.126-2.066-1.9c-0.082-0.352,0.08-0.528,0.486-0.528
		c1.62,1.338,2.958,2.675,4.012,4.012c0.081,0.423-0.121,0.563-0.607,0.423c-0.406-0.493-0.852-0.985-1.338-1.479
		c-3.404,0.353-7.134,0.634-11.186,0.845c-0.325-0.141-0.364-0.352-0.121-0.634C223.755,18.152,225.537,16.534,226.916,14.563z
		 M224.119,20.897h7.903c0.891,0,1.296,0.352,1.216,1.056v4.012c0.08,0.773-0.325,1.125-1.216,1.056h-8.024
		c-0.812,0.069-1.216-0.282-1.216-1.056v-4.012C222.782,21.249,223.228,20.897,224.119,20.897z M231.779,21.53h-7.417
		c-0.568,0-0.851,0.212-0.851,0.634v3.589c0,0.493,0.243,0.704,0.729,0.634h7.538c0.566,0.07,0.81-0.141,0.729-0.634v-3.589
		C232.589,21.742,232.346,21.53,231.779,21.53z"/>
	<path fill="#444444" d="M241.871,16.885c0-0.352,0.202-0.457,0.608-0.316c0.404,0.493,0.729,0.915,0.973,1.267h5.714
		c1.054,0,1.499,0.458,1.338,1.372c-0.082,0.493-0.243,0.985-0.486,1.479c-0.406,0.281-0.649,0.211-0.729-0.212
		c0.647-1.337,0.566-2.006-0.243-2.006h-10.942c-0.486,0-0.729,0.212-0.729,0.634v1.478c-0.243,0.353-0.486,0.353-0.729,0v-1.583
		c0-0.773,0.404-1.161,1.216-1.161h4.741C242.438,17.625,242.195,17.307,241.871,16.885z M238.71,14.668
		c0.486-0.211,0.688-0.105,0.608,0.316l-0.243,0.316h4.377c0.404,0.212,0.404,0.423,0,0.634h-2.797
		c0.243,0.493,0.404,0.915,0.486,1.267c-0.162,0.353-0.405,0.388-0.729,0.105c-0.082-0.281-0.243-0.738-0.486-1.372h-1.216
		c-0.405,0.493-0.851,0.95-1.337,1.372c-0.486,0.211-0.69,0.105-0.608-0.316C237.575,16.217,238.224,15.443,238.71,14.668z
		 M239.805,19.313h7.295c0.891,0,1.296,0.353,1.216,1.056v1.056c0.08,0.774-0.325,1.127-1.216,1.056h-7.781v1.056h8.146
		c0.973,0,1.418,0.353,1.338,1.056v1.479c0.08,0.773-0.365,1.126-1.338,1.056h-7.659c-0.812,0.07-1.216-0.317-1.216-1.161v-5.596
		C238.589,19.666,238.993,19.313,239.805,19.313z M246.978,19.947h-6.93c-0.486,0-0.729,0.177-0.729,0.527v1.373h7.538
		c0.566,0.07,0.81-0.105,0.729-0.528v-0.845C247.666,20.124,247.464,19.947,246.978,19.947z M247.343,24.169h-8.024v1.689
		c0,0.492,0.243,0.703,0.729,0.633h7.295c0.566,0.07,0.81-0.105,0.729-0.527v-1.162C248.152,24.38,247.909,24.169,247.343,24.169z
		 M244.789,14.668c0.405-0.211,0.608-0.105,0.608,0.316l-0.243,0.316h4.863c0.404,0.212,0.404,0.423,0,0.634h-2.797
		c0.162,0.353,0.324,0.81,0.486,1.372c-0.162,0.353-0.405,0.388-0.729,0.105c-0.162-0.563-0.364-1.056-0.607-1.478h-1.581
		c-0.243,0.353-0.527,0.704-0.851,1.056c-0.406,0.211-0.608,0.105-0.608-0.316C243.897,15.97,244.384,15.301,244.789,14.668z"/>
	<path fill="#444444" d="M252.206,15.407h4.62c0.323,0.212,0.323,0.423,0,0.634h-1.945v4.223h1.702c0.323,0.211,0.323,0.423,0,0.634
		h-1.702v4.328c0.729-0.281,1.337-0.563,1.823-0.845c0.486,0.071,0.567,0.282,0.243,0.634c-1.702,0.845-3.323,1.442-4.863,1.794
		c-0.405-0.141-0.446-0.352-0.121-0.633c0.486-0.071,1.216-0.282,2.188-0.634v-4.645h-1.702c-0.325-0.211-0.325-0.423,0-0.634h1.702
		v-4.223h-1.945C251.881,15.83,251.881,15.619,252.206,15.407z M258.649,15.196h5.593c0.892,0,1.297,0.353,1.216,1.056v4.435
		c0.081,0.774-0.324,1.126-1.216,1.056h-2.432v1.688h3.647c0.324,0.211,0.324,0.423,0,0.634h-3.647v1.9h4.377
		c0.324,0.211,0.324,0.422,0,0.633h-9.483c-0.325-0.141-0.325-0.352,0-0.633h4.377v-1.9h-3.404c-0.325-0.141-0.325-0.352,0-0.634
		h3.404v-1.688h-2.432c-0.812,0.07-1.216-0.317-1.216-1.162v-4.328C257.434,15.548,257.838,15.196,258.649,15.196z M261.081,15.83
		h-2.31c-0.406,0-0.608,0.211-0.608,0.633v1.689h2.918V15.83z M261.081,18.786h-2.918v1.794c0,0.423,0.243,0.6,0.729,0.528h2.188
		V18.786z M263.999,15.83h-2.188v2.322h2.918v-1.689C264.81,16.041,264.566,15.83,263.999,15.83z M264.729,18.786h-2.918v2.322
		h2.188c0.567,0.071,0.811-0.141,0.729-0.634V18.786z"/>
	<path fill="#444444" d="M270.93,22.48c0.323-0.211,0.566-0.14,0.729,0.211c-0.812,1.619-1.824,2.991-3.04,4.117
		c-0.568,0.141-0.771,0-0.607-0.422C269.228,25.19,270.2,23.888,270.93,22.48z M279.684,14.668c0.404,0.141,0.445,0.352,0.121,0.633
		c-1.459,0.142-3.161,0.282-5.106,0.423c-1.378,1.267-2.553,2.182-3.525,2.744h4.377c0.566-0.351,1.337-0.95,2.31-1.794
		c0.486-0.07,0.688,0.07,0.608,0.422c-2.188,1.972-4.783,3.378-7.781,4.223c3.322,0,6.2-0.105,8.632-0.316
		c-0.405-0.563-0.811-1.161-1.216-1.795c0-0.352,0.243-0.457,0.729-0.316c0.973,1.338,1.783,2.675,2.432,4.012
		c-0.081,0.352-0.324,0.422-0.729,0.211c-0.243-0.492-0.527-0.985-0.851-1.479l-4.62,0.212v4.328
		c0.08,0.703-0.325,1.056-1.216,1.056c-0.812,0-1.581-0.142-2.311-0.423c-0.243-0.422-0.121-0.633,0.365-0.633
		c1.702,0.492,2.512,0.492,2.432,0v-4.328l-4.863,0.105c-0.486-0.07-0.568-0.317-0.243-0.739c0.973-0.141,2.755-0.845,5.35-2.111
		h-4.256c-0.648,0-0.812-0.211-0.486-0.634c0.811-0.351,2.106-1.267,3.891-2.744l-5.106,0.105c-0.325-0.211-0.325-0.423,0-0.634
		C272.914,15.196,276.603,15.02,279.684,14.668z M277.009,22.691c0.08-0.422,0.323-0.563,0.729-0.422
		c1.134,1.408,2.106,2.78,2.918,4.117c0,0.422-0.243,0.528-0.729,0.316C279.115,25.436,278.143,24.099,277.009,22.691z"/>
	<path fill="#444444" d="M286.493,15.724c-0.568,1.478-1.338,2.851-2.311,4.117c0.811,0,1.581-0.07,2.311-0.211
		c0.404-0.563,0.769-1.162,1.094-1.795c0.404-0.141,0.608,0,0.608,0.422c-1.459,2.534-2.675,4.223-3.647,5.067
		c1.053-0.141,2.35-0.387,3.891-0.739c0.486,0,0.607,0.212,0.364,0.634c-1.945,0.422-3.729,0.739-5.35,0.95
		c-0.405-0.07-0.486-0.281-0.243-0.634c0.729-0.422,1.702-1.478,2.918-3.167c-1.298,0.142-2.188,0.211-2.675,0.211
		c-0.486-0.069-0.607-0.281-0.364-0.633c1.053-1.056,1.984-2.568,2.796-4.54C286.209,15.196,286.411,15.301,286.493,15.724z
		 M288.56,24.909c0.404,0.07,0.486,0.281,0.243,0.633c-2.027,0.563-3.851,0.95-5.471,1.161c-0.406-0.141-0.447-0.352-0.122-0.633
		C285.155,25.788,286.938,25.401,288.56,24.909z M292.329,14.774c0.323,0.352,0.647,0.845,0.973,1.478h3.525
		c0.324,0.211,0.324,0.423,0,0.634h-4.498c-0.812,1.478-1.541,2.604-2.188,3.378c-0.082,0.142,0,0.211,0.243,0.211
		c1.539-0.069,3.12-0.176,4.741-0.316c-0.486-0.984-0.933-1.759-1.337-2.322c0-0.352,0.202-0.492,0.607-0.423
		c1.135,1.689,1.945,3.238,2.432,4.646c-0.162,0.352-0.405,0.388-0.729,0.105l-0.607-1.478l-1.338,0.105v4.961
		c0,0.493,0.243,0.704,0.729,0.634h0.729c0.729,0.07,1.054-0.845,0.973-2.745c0.243-0.281,0.486-0.281,0.729,0
		c0.162,2.393-0.364,3.519-1.58,3.379h-0.973c-0.893,0.069-1.338-0.317-1.338-1.161v-4.962l-1.945,0.105
		c0.162,3.167-0.973,5.173-3.404,6.018c-0.486-0.071-0.568-0.282-0.243-0.634c2.107-0.774,3.08-2.533,2.918-5.278l-1.459,0.105
		c-0.486,0-0.568-0.246-0.243-0.739c0.892-0.984,1.702-2.181,2.432-3.589h-3.161c-0.325-0.211-0.325-0.423,0-0.634h4.134
		c-0.243-0.422-0.527-0.809-0.851-1.161C291.68,14.668,291.923,14.563,292.329,14.774z"/>
</g>
<g>
	<path fill="#444444" d="M218.879,39.744c-0.294,2.557-2.721,4.633-6.49,4.633c-4.284,0-6.987-2.332-6.987-5.99
		c0-2.619,1.839-5.99,6.987-5.99c2.85,0,5.994,1.133,6.38,4.137h-1.36c-0.386-2.172-2.647-3.051-5.02-3.051
		c-3.255,0-5.517,1.582-5.517,4.904c0,2.541,1.545,4.904,5.517,4.904c3.126,0,4.688-1.373,5.13-3.547H218.879z"/>
	<path fill="#444444" d="M234.53,32.684h1.931l0.019,11.406h-1.361l-0.018-9.857h-0.037l-5.773,9.857h-1.25l-5.792-9.873h-0.037
		l0.019,9.873h-1.36l-0.019-11.406h1.985l5.848,9.922L234.53,32.684z"/>
	<path fill="#444444" d="M247.793,35.943c-0.202-1.949-2.005-2.461-4.119-2.461s-3.714,0.734-3.714,2.014
		c0,1.484,1.618,1.836,4.799,2.299c2.391,0.336,4.78,0.848,4.78,3.02c0,2.813-2.923,3.563-5.479,3.563
		c-3.328,0-5.756-0.99-5.958-4.057h1.361c0.238,2.381,2.077,2.971,4.597,2.971c1.967,0,4.008-0.479,4.008-2.268
		c0-1.742-2.391-1.949-4.78-2.285c-3.145-0.432-4.799-1.197-4.799-3.035c0-2.492,2.629-3.307,5.185-3.307
		c2.685,0,5.388,0.83,5.479,3.547H247.793z"/>
</g>
<linearGradient id="SVGID_1_" gradientUnits="userSpaceOnUse" x1="16.8896" y1="53.8477" x2="16.8896" y2="23.5527">
	<stop  offset="0" style="stop-color:#2D5F9C"/>
	<stop  offset="0.1741" style="stop-color:#356BAD"/>
	<stop  offset="0.4613" style="stop-color:#407BC3"/>
	<stop  offset="0.7391" style="stop-color:#4784D0"/>
	<stop  offset="0.9946" style="stop-color:#4987D4"/>
</linearGradient>
<path fill="url(#SVGID_1_)" d="M21.35,52.314c-7.212,4.041-13.015-0.395-17.056-7.609C0.251,37.492-0.497,30.229,6.72,26.186
	c7.215-4.04,20.547-3.821,24.588,3.392C35.348,36.791,28.564,48.271,21.35,52.314z"/>
<g opacity="0.95">
	<linearGradient id="SVGID_2_" gradientUnits="userSpaceOnUse" x1="32.6108" y1="50.1016" x2="32.6108" y2="12.0371">
		<stop  offset="0" style="stop-color:#1CA5F1"/>
		<stop  offset="0.3294" style="stop-color:#23B9F8"/>
		<stop  offset="0.6756" style="stop-color:#28C6FD"/>
		<stop  offset="0.9946" style="stop-color:#2ACAFF"/>
	</linearGradient>
	<path fill="url(#SVGID_2_)" d="M27.128,50.102c-10.511,0-14.193-8.52-14.193-19.031c0-10.511,3.683-19.034,14.193-19.034
		c10.51,0,25.159,8.522,25.159,19.034C52.287,41.582,37.638,50.102,27.128,50.102z"/>
</g>
<g opacity="0.95">
	<g opacity="0.25">
		<path fill="#2474BC" d="M23.58,40.457c-10.51,0-14.192-8.518-14.192-19.031c0-10.511,3.683-19.029,14.192-19.029
			c10.511,0,25.161,8.519,25.161,19.033C48.741,31.939,34.091,40.457,23.58,40.457z"/>
	</g>
	<g>
		<linearGradient id="SVGID_3_" gradientUnits="userSpaceOnUse" x1="29.0645" y1="1.397" x2="29.0645" y2="39.4575">
			<stop  offset="0" style="stop-color:#BD69FE"/>
			<stop  offset="0.0226" style="stop-color:#B66AFD"/>
			<stop  offset="0.1932" style="stop-color:#876EF3"/>
			<stop  offset="0.3635" style="stop-color:#6071EB"/>
			<stop  offset="0.5305" style="stop-color:#4174E5"/>
			<stop  offset="0.6934" style="stop-color:#2B75E1"/>
			<stop  offset="0.8503" style="stop-color:#1E77DE"/>
			<stop  offset="0.9946" style="stop-color:#1A77DD"/>
		</linearGradient>
		<path fill="url(#SVGID_3_)" d="M23.58,39.457c-10.51,0-14.192-8.518-14.192-19.031c0-10.511,3.683-19.029,14.192-19.029
			c10.511,0,25.161,8.519,25.161,19.033C48.741,30.939,34.091,39.457,23.58,39.457z"/>
	</g>
</g>
<g>
	<path fill="#FFFFFF" d="M28.287,14.834C28.287,14.834,28.287,14.834,28.287,14.834c0.006,0.003,0.009,0.003,0.015,0.003
		L28.287,14.834z"/>
	<path fill="#FFFFFF" d="M34.034,13.185c-0.561,0-1.015,0.452-1.015,1.016c0,0.064,0.025,0.123,0.039,0.187
		c-1.261,0.681-2.864,1.246-3.635,1.499c-0.091-0.147-0.277-0.401-0.607-0.679c0.771-0.513,2.25-1.544,3.325-2.573
		c0.153,0.088,0.319,0.15,0.507,0.15c0.579,0,1.042-0.465,1.042-1.038c0-0.577-0.463-1.042-1.042-1.042
		c-0.57,0-1.035,0.465-1.035,1.042c0,0.195,0.068,0.367,0.162,0.523c-1.115,1.063-2.719,2.163-3.409,2.617
		c-0.027-0.019-0.049-0.034-0.078-0.053c-0.436-0.13-0.822-0.14-1.182-0.083c0.533-0.685,1.215-1.56,1.71-2.19
		c0.088,0.025,0.179,0.056,0.276,0.056c0.542,0,0.984-0.444,0.984-0.981c0-0.55-0.442-0.992-0.984-0.992
		c-0.548,0-0.99,0.442-0.99,0.992c0,0.254,0.105,0.483,0.269,0.659c-0.672,0.861-1.663,2.135-2.169,2.781
		c-0.427,0.237-0.833,0.567-1.258,0.938c-0.973,0.846-1.949,1.681-2.921,2.53c1.217-0.011,2.452-0.167,3.666-0.082
		c1.461,0.103,2.649,0.799,3.131,2.233c0.503,1.495,0.288,3.185-0.008,4.699c-0.378,1.938-0.993,3.837-1.793,5.64
		c-1.165,2.652-2.772,5.045-4.509,7.35c-0.223,0.293-0.633,0.787-0.633,0.787c5.136,0.779,10.437-1.4,10.437-1.4
		c1.768-6.736-0.781-16.229-0.781-16.229c-0.452-1.716-1.012-3.602-1.869-5.19c0.806-0.27,2.351-0.822,3.61-1.499
		c0.186,0.217,0.452,0.36,0.76,0.36c0.562,0,1.014-0.456,1.014-1.013C35.048,13.637,34.596,13.185,34.034,13.185z"/>
</g>
<g>
	<path fill="#3E3A39" d="M90.029,28.945h-5.56V17.085h3.813c0.271,0,0.489-0.221,0.489-0.496v-0.901
		c0-0.273-0.219-0.495-0.489-0.495H62.43c-0.269,0-0.488,0.222-0.488,0.495v0.901c0,0.275,0.22,0.496,0.488,0.496h4.215v11.859
		h-5.56c-0.271,0-0.49,0.223-0.49,0.497v0.896c0,0.275,0.219,0.5,0.49,0.5h5.56v1.912c0,0.063-0.024,0.176-0.05,0.23l-4.679,10.148
		c-0.068,0.139-0.062,0.295,0.015,0.416l0.194,0.193h1.556c0.218,0,0.444-0.145,0.539-0.348l4.547-9.863
		c0.063-0.133,0.109-0.338,0.109-0.494v-2.195H82.24v12.549c0,0.273,0.22,0.498,0.488,0.498h1.251c0.271,0,0.49-0.225,0.49-0.498
		V30.838h5.56c0.27,0,0.488-0.225,0.488-0.5v-0.896C90.518,29.168,90.299,28.945,90.029,28.945z M68.876,28.945V17.085h13.337
		l0.025,11.859H68.876z"/>
	<path fill="#3E3A39" d="M108.852,24.833H104.5v-5.194h3.813c0.269,0,0.489-0.223,0.489-0.498v-0.898
		c0-0.272-0.221-0.494-0.489-0.494H104.5v-4.043c0-0.275-0.219-0.497-0.487-0.497h-1.249c-0.272,0-0.491,0.222-0.491,0.497v11.128
		H98.72v-9.145c0-0.273-0.219-0.495-0.49-0.495h-1.252c-0.27,0-0.489,0.222-0.489,0.495v9.145H95.77c-0.271,0-0.49,0.226-0.49,0.498
		v0.901c0,0.272,0.219,0.495,0.49,0.495h13.082c0.27,0,0.49-0.223,0.49-0.495v-0.901C109.342,25.058,109.121,24.833,108.852,24.833z
		"/>
	<path fill="#3E3A39" d="M106.268,32.859c-0.479,0.447-1.233,1.137-1.768,1.625v-6.319c0-0.272-0.219-0.497-0.487-0.497h-1.249
		c-0.272,0-0.491,0.225-0.491,0.497v8.178l-6.474,5.6c-0.148,0.121-0.25,0.346-0.25,0.543v1.607l0.065,0.408h0.307l0.189-0.033
		l12.711-10.889c0.147-0.123,0.251-0.348,0.251-0.547v-2.572l-0.5,0.393C107.855,31.42,107.08,32.094,106.268,32.859z"/>
	<path fill="#3E3A39" d="M97.142,37.084l2.063-8.285c0.035-0.143,0.005-0.288-0.082-0.396l-0.205-0.169h-1.4
		c-0.239,0-0.467,0.181-0.526,0.418l-2.058,8.282c-0.037,0.143-0.009,0.285,0.077,0.393l0.205,0.172h1.4
		C96.856,37.498,97.081,37.322,97.142,37.084z"/>
	<path fill="#3E3A39" d="M118.351,35.08v-10.6c0-0.275-0.222-0.496-0.492-0.496h-1.251c-0.269,0-0.489,0.221-0.489,0.496V35.1
		l-6.489,5.994c-0.137,0.129-0.232,0.35-0.232,0.537v1.756l0.06,0.408h0.308l0.197-0.041l7.338-6.865l6.981,6.775l0.164,0.131h0.124
		l0.368-0.102v-2.063c0-0.184-0.095-0.406-0.23-0.539L118.351,35.08z"/>
	<path fill="#3E3A39" d="M125.252,15.193H108.81c-0.269,0-0.486,0.222-0.486,0.495v0.901c0,0.275,0.218,0.496,0.486,0.496h6.044
		l-0.563,3.493h-4.137c-0.271,0-0.49,0.225-0.49,0.498v15.363c0,0.271,0.219,0.494,0.49,0.494h1.253
		c0.269,0,0.486-0.223,0.486-0.494V22.475h10.411v13.681c0,0.271,0.219,0.496,0.488,0.496h1.253c0.271,0,0.489-0.225,0.489-0.496
		v-15.08c0-0.273-0.219-0.498-0.489-0.498h-7.521l0.577-3.493h8.151c0.27,0,0.49-0.221,0.49-0.496v-0.901
		C125.742,15.415,125.521,15.193,125.252,15.193z"/>
	<path fill="#3E3A39" d="M193.011,15.706h-18.46c-0.271,0-0.491,0.223-0.491,0.495v0.901c0,0.272,0.221,0.496,0.491,0.496h5.651
		l-5.354,10.871c-0.069,0.146-0.064,0.298,0.012,0.42l0.194,0.193h1.932l0.084-0.177c0.805-1.699,1.745-3.61,2.82-5.737
		c0.858-1.7,2.23-4.511,2.745-5.569h8.636v7.18h-7.831c-0.224,0-0.449,0.156-0.537,0.367l-0.372,0.924
		c-0.06,0.142-0.049,0.293,0.029,0.411l0.2,0.188h10.25c0.271,0,0.49-0.222,0.49-0.497v-9.971
		C193.501,15.928,193.282,15.706,193.011,15.706z"/>
	<path fill="#3E3A39" d="M193.011,30.027h-17.922c-0.269,0-0.487,0.221-0.487,0.494v12.953c0,0.271,0.219,0.494,0.487,0.494h17.922
		c0.271,0,0.49-0.223,0.49-0.494V30.521C193.501,30.248,193.282,30.027,193.011,30.027z M176.83,42.076V31.918h14.441v10.158H176.83
		z"/>
	<path fill="#3E3A39" d="M174.056,19.395h-4.485v-5.034c0-0.275-0.219-0.498-0.491-0.498h-1.247c-0.271,0-0.49,0.223-0.49,0.498
		v5.034h-3.949c-0.27,0-0.487,0.221-0.487,0.496v1.042c0,0.272,0.218,0.494,0.487,0.494h3.949v7.745l-4.068,1.518
		c-0.212,0.082-0.368,0.311-0.368,0.541v1.66l4.437-1.531v10.717h-2.604c-0.159,0-0.297,0.076-0.368,0.203l-0.07,0.271l0.707,1.119
		c0.113,0.178,0.336,0.299,0.54,0.299h3.532c0.272,0,0.491-0.223,0.491-0.494V30.5l4.608-1.658c0.211-0.085,0.366-0.311,0.366-0.539
		V26.48l-0.421,0.164c-0.719,0.283-1.528,0.619-2.428,0.992c-0.541,0.229-1.471,0.582-2.126,0.827v-7.036h4.485
		c0.271,0,0.489-0.222,0.489-0.494v-1.042C174.545,19.616,174.326,19.395,174.056,19.395z"/>
	<path fill="#3E3A39" d="M159.136,16.838h-8.042l-0.582-2.968c-0.049-0.249-0.271-0.434-0.519-0.434H148.2l0.055,0.354
		c0.088,0.573,0.203,1.147,0.339,1.727c0.079,0.328,0.184,0.899,0.258,1.32h-8.311c-0.271,0-0.491,0.225-0.491,0.496v0.759
		c0,0.275,0.22,0.497,0.491,0.497h18.595c0.27,0,0.489-0.222,0.489-0.497v-0.759C159.625,17.063,159.405,16.838,159.136,16.838z"/>
	<path fill="#3E3A39" d="M137.222,23.643h-1.251c-0.004,0-0.007,0.006-0.011,0.006v-2.08h3.276c0.268,0,0.488-0.226,0.488-0.498
		v-0.899c0-0.271-0.221-0.494-0.488-0.494h-3.276v-5.601c0-0.274-0.219-0.496-0.488-0.496h-1.252c-0.271,0-0.489,0.222-0.489,0.496
		v5.601h-4.215c-0.27,0-0.487,0.223-0.487,0.494v0.899c0,0.272,0.218,0.498,0.487,0.498h3.17l-3.728,12.326
		c-0.043,0.143-0.02,0.287,0.063,0.402l0.203,0.174h1.959l0.062-0.227c0.442-1.596,0.962-3.309,1.543-5.092
		c0.281-0.876,0.645-2.067,0.942-3.06v17.519c0,0.275,0.219,0.498,0.489,0.498h1.252c0.27,0,0.488-0.223,0.488-0.498V25.185
		l2.427,5.942c0.085,0.211,0.313,0.367,0.54,0.367h1.251c0.151,0,0.283-0.068,0.363-0.189l0.096-0.258l-2.881-7.041
		C137.668,23.797,137.442,23.643,137.222,23.643z"/>
	<path fill="#3E3A39" d="M141.369,29.209h0.116c0.152,0,0.297-0.066,0.395-0.18l6.688-7.681c0.089-0.105,0.134-0.243,0.124-0.381
		c-0.009-0.14-0.074-0.27-0.179-0.359l-0.832-0.727l-0.23-0.127h-0.114c-0.153,0-0.3,0.066-0.396,0.182l-6.685,7.679
		c-0.092,0.106-0.138,0.24-0.128,0.381c0.011,0.141,0.072,0.27,0.181,0.36l0.832,0.726L141.369,29.209z"/>
	<path fill="#3E3A39" d="M152.667,19.94c-0.101-0.119-0.244-0.186-0.398-0.186l-0.261,0.053l-0.914,0.798
		c-0.107,0.093-0.173,0.223-0.184,0.362c-0.01,0.138,0.037,0.275,0.129,0.383l6.683,7.679c0.1,0.113,0.244,0.18,0.396,0.18
		l0.26-0.053l0.919-0.8c0.106-0.091,0.169-0.22,0.179-0.36s-0.034-0.274-0.129-0.381L152.667,19.94z"/>
	<path fill="#3E3A39" d="M151.399,35.336l5.279-5.145c0.092-0.113,0.13-0.252,0.113-0.393c-0.016-0.141-0.084-0.264-0.193-0.35
		l-0.866-0.692l-0.223-0.111h-0.104c-0.159,0-0.311,0.072-0.385,0.169l-5.156,5.025l-5.132-4.998
		c-0.098-0.124-0.248-0.196-0.409-0.196l-0.244,0.048l-0.945,0.753c-0.111,0.088-0.181,0.211-0.197,0.352
		c-0.018,0.141,0.023,0.279,0.137,0.418l5.257,5.119l-7.339,7.154c-0.195,0.188-0.224,0.51-0.064,0.73l0.643,0.898
		c0.096,0.133,0.242,0.209,0.402,0.209l0.258-0.055l7.635-7.441l7.547,7.354l0.22,0.143h0.126c0.16,0,0.306-0.076,0.402-0.211
		l0.643-0.895c0.16-0.223,0.13-0.545-0.063-0.732L151.399,35.336z"/>
</g>
</svg>
